# Drill - conical spiral drill bit + drive motor housing + mounting bracket
# CCW winding
o drill

# Drill bit cone (8-sided cone pointing forward)
v  0.00  0.00  0.00
v  0.18  0.18  0.00
v  0.00  0.25  0.00
v -0.18  0.18  0.00
v -0.25  0.00  0.00
v -0.18 -0.18  0.00
v  0.00 -0.25  0.00
v  0.18 -0.18  0.00
v  0.25  0.00  0.00

# Cone tip (front)
v  0.00  0.00  0.90

# Mid flute ring (spiral rib - offset hex)
v  0.10  0.10  0.30
v  0.00  0.14  0.30
v -0.10  0.10  0.30
v -0.14  0.00  0.30
v -0.10 -0.10  0.30
v  0.00 -0.14  0.30
v  0.10 -0.10  0.30
v  0.14  0.00  0.30

v  0.10  0.10  0.38
v  0.00  0.14  0.38
v -0.10  0.10  0.38
v -0.14  0.00  0.38
v -0.10 -0.10  0.38
v  0.00 -0.14  0.38
v  0.10 -0.10  0.38
v  0.14  0.00  0.38

# Motor housing (octagonal prism)
v  0.22  0.22 -0.02
v  0.00  0.30 -0.02
v -0.22  0.22 -0.02
v -0.30  0.00 -0.02
v -0.22 -0.22 -0.02
v  0.00 -0.30 -0.02
v  0.22 -0.22 -0.02
v  0.30  0.00 -0.02

v  0.22  0.22 -0.65
v  0.00  0.30 -0.65
v -0.22  0.22 -0.65
v -0.30  0.00 -0.65
v -0.22 -0.22 -0.65
v  0.00 -0.30 -0.65
v  0.22 -0.22 -0.65
v  0.30  0.00 -0.65

# Mounting bracket (box, below motor)
v  0.20 -0.30 -0.10
v -0.20 -0.30 -0.10
v  0.20 -0.55 -0.10
v -0.20 -0.55 -0.10
v  0.20 -0.30 -0.55
v -0.20 -0.30 -0.55
v  0.20 -0.55 -0.55
v -0.20 -0.55 -0.55

# Drill cone faces
f 10 2 1
f 10 3 2
f 10 4 3
f 10 5 4
f 10 6 5
f 10 7 6
f 10 8 7
f 10 9 8
f 10 1 9

# Cone base cap
f 1 2 3 4 5 6 7 8 9

# Flute rib sides
f 11 19 20 12
f 12 20 21 13
f 13 21 22 14
f 14 22 23 15
f 15 23 24 16
f 16 24 25 17
f 17 25 26 18
f 18 26 19 11
f 11 12 13 14 15 16 17 18
f 19 26 25 24 23 22 21 20

# Motor housing sides
f 27 35 36 28
f 28 36 37 29
f 29 37 38 30
f 30 38 39 31
f 31 39 40 32
f 32 40 41 33
f 33 41 42 34
f 34 42 35 27

# Motor front and rear caps
f 27 28 29 30 31 32 33 34
f 35 42 41 40 39 38 37 36

# Mounting bracket sides
f 43 47 48 44
f 44 48 50 46
f 46 50 49 45
f 45 49 47 43
f 47 49 50 48
f 43 44 46 45
