# Flamethrower - wide nozzle tube with flared end + fuel tank canister
# CCW winding
o flamethrower

# Main tube (hexagonal prism, rear)
v  0.15  0.15  0.00
v  0.00  0.15  0.15
v -0.15  0.15  0.00
v -0.15 -0.15  0.00
v  0.00 -0.15  0.15
v  0.15 -0.15  0.00

v  0.15  0.15 -0.90
v  0.00  0.15 -0.75
v -0.15  0.15 -0.90
v -0.15 -0.15 -0.90
v  0.00 -0.15 -0.75
v  0.15 -0.15 -0.90

# Nozzle flare (wider hex, front end)
v  0.25  0.25  0.30
v  0.00  0.25  0.55
v -0.25  0.25  0.30
v -0.25 -0.25  0.30
v  0.00 -0.25  0.55
v  0.25 -0.25  0.30

# Nozzle tip (small hex opening)
v  0.10  0.10  0.75
v  0.00  0.10  0.85
v -0.10  0.10  0.75
v -0.10 -0.10  0.75
v  0.00 -0.10  0.85
v  0.10 -0.10  0.75

# Fuel tank (octagonal prism below main tube)
v  0.12 -0.28  0.00
v  0.00 -0.35  0.00
v -0.12 -0.28  0.00
v -0.12 -0.28 -0.70
v  0.00 -0.35 -0.70
v  0.12 -0.28 -0.70

# Fuel tank cap centers
v  0.00 -0.31  0.05
v  0.00 -0.31 -0.75

# Main tube sides
f 1 7 8 2
f 2 8 9 3
f 3 9 10 4
f 4 10 11 5
f 5 11 12 6
f 6 12 7 1

# Rear cap
f 7 12 11 10 9 8

# Tube to nozzle transition
f 1 2 14 13
f 2 3 15 14
f 3 4 16 15
f 4 5 17 16
f 5 6 18 17
f 6 1 13 18

# Nozzle to tip
f 13 14 20 19
f 14 15 21 20
f 15 16 22 21
f 16 17 23 22
f 17 18 24 23
f 18 13 19 24

# Nozzle tip cap
f 19 20 21 22 23 24

# Fuel tank sides
f 25 28 29 26
f 26 29 30 27
f 27 30 28 25

# Fuel tank caps
f 31 26 25
f 31 27 26
f 31 25 27
f 32 28 30
f 32 30 29
f 32 29 28
