# Grenade Launcher - wide barrel with drum magazine
o grenade_launcher

# Barrel hex prism (front ring)
v  0.22  0.22  0.00
v  0.00  0.28  0.00
v -0.22  0.22  0.00
v -0.22 -0.22  0.00
v  0.00 -0.28  0.00
v  0.22 -0.22  0.00

# Barrel hex prism (back ring)
v  0.22  0.22 -0.65
v  0.00  0.28 -0.65
v -0.22  0.22 -0.65
v -0.22 -0.22 -0.65
v  0.00 -0.28 -0.65
v  0.22 -0.22 -0.65

# Muzzle center
v  0.00  0.00  0.00

# Drum magazine (side hex, outer face)
v  0.55  0.25 -0.20
v  0.55  0.00 -0.45
v  0.55 -0.25 -0.20
v  0.55 -0.25  0.05
v  0.55  0.00  0.30
v  0.55  0.25  0.05

# Drum magazine (side hex, inner face connecting to barrel)
v  0.22  0.25 -0.20
v  0.22  0.00 -0.45
v  0.22 -0.25 -0.20
v  0.22 -0.25  0.05
v  0.22  0.00  0.30
v  0.22  0.25  0.05

# Barrel sides
f 1 7 8 2
f 2 8 9 3
f 3 9 10 4
f 4 10 11 5
f 5 11 12 6
f 6 12 7 1

# Barrel rear cap
f 12 11 10 9 8 7

# Barrel muzzle
f 13 1 2
f 13 2 3
f 13 3 4
f 13 4 5
f 13 5 6
f 13 6 1

# Drum outer sides

f 14 15 21 20
f 15 16 22 21
f 16 17 23 22
f 17 18 24 23
f 18 19 25 24
f 19 14 20 25

# Drum outer cap
f 14 15 16 17 18 19

# Drum inner cap
f 20 21 22 23 24 25
