# Laser Beam - slim sleek barrel with focusing lens ring + crystal tip
# CCW winding
o laser_beam

# Main barrel (slim octagonal prism)
v  0.06  0.06 -0.90
v  0.00  0.09 -0.90
v -0.06  0.06 -0.90
v -0.06 -0.06 -0.90
v  0.00 -0.09 -0.90
v  0.06 -0.06 -0.90

v  0.06  0.06  0.40
v  0.00  0.09  0.40
v -0.06  0.06  0.40
v -0.06 -0.06  0.40
v  0.00 -0.09  0.40
v  0.06 -0.06  0.40

# Lens ring (larger hex, mid-barrel)
v  0.14  0.14  0.00
v  0.00  0.18  0.00
v -0.14  0.14  0.00
v -0.14 -0.14  0.00
v  0.00 -0.18  0.00
v  0.14 -0.14  0.00

v  0.14  0.14  0.08
v  0.00  0.18  0.08
v -0.14  0.14  0.08
v -0.14 -0.14  0.08
v  0.00 -0.18  0.08
v  0.14 -0.14  0.08

# Crystal tip (pyramid front)
v  0.04  0.04  0.40
v  0.00  0.05  0.40
v -0.04  0.04  0.40
v -0.04 -0.04  0.40
v  0.00 -0.05  0.40
v  0.04 -0.04  0.40
v  0.00  0.00  0.65

# Rear cap center
v  0.00  0.00 -0.90

# Barrel sides
f 1 7 8 2
f 2 8 9 3
f 3 9 10 4
f 4 10 11 5
f 5 11 12 6
f 6 12 7 1

# Rear cap
f 32 2 1
f 32 3 2
f 32 4 3
f 32 5 4
f 32 6 5
f 32 1 6

# Lens ring sides
f 13 19 20 14
f 14 20 21 15
f 15 21 22 16
f 16 22 23 17
f 17 23 24 18
f 18 24 19 13

# Lens ring caps
f 13 14 15 16 17 18
f 19 24 23 22 21 20

# Crystal tip pyramid
f 25 31 26
f 26 31 27
f 27 31 28
f 28 31 29
f 29 31 30
f 30 31 25

# Crystal base cap
f 25 26 27 28 29 30
