# Mine Layer - flat box with trap door, wheel rollers underneath
# CCW winding
o mine_layer

# Main body box (flat)
v  0.45  0.18  0.45
v -0.45  0.18  0.45
v  0.45  0.18 -0.45
v -0.45  0.18 -0.45
v  0.45 -0.05  0.45
v -0.45 -0.05  0.45
v  0.45 -0.05 -0.45
v -0.45 -0.05 -0.45

# Trap door (hinged panel at bottom-rear)
v  0.40 -0.05 -0.45
v -0.40 -0.05 -0.45
v  0.40 -0.18 -0.30
v -0.40 -0.18 -0.30

# Wheel roller left front (cylinder approx as hex)
v  0.50 -0.05  0.30
v  0.50 -0.15  0.45
v  0.50 -0.25  0.30
v  0.50 -0.25  0.15
v  0.50 -0.15  0.00
v  0.50 -0.05  0.15

v  0.60 -0.05  0.30
v  0.60 -0.15  0.45
v  0.60 -0.25  0.30
v  0.60 -0.25  0.15
v  0.60 -0.15  0.00
v  0.60 -0.05  0.15

# Wheel roller right front (mirrored)
v -0.50 -0.05  0.30
v -0.50 -0.15  0.45
v -0.50 -0.25  0.30
v -0.50 -0.25  0.15
v -0.50 -0.15  0.00
v -0.50 -0.05  0.15

v -0.60 -0.05  0.30
v -0.60 -0.15  0.45
v -0.60 -0.25  0.30
v -0.60 -0.25  0.15
v -0.60 -0.15  0.00
v -0.60 -0.05  0.15

# Body top
f 1 2 4 3

# Body sides
f 1 5 6 2
f 3 4 8 7
f 1 3 7 5
f 2 6 8 4

# Body bottom
f 5 7 8 6

# Trap door
f 9 11 12 10
f 9 10 8 7
f 11 9 7
f 12 11 7 8
f 10 12 8

# Left wheel sides
f 13 19 20 14
f 14 20 21 15
f 15 21 22 16
f 16 22 23 17
f 17 23 24 18
f 18 24 19 13
f 13 14 15 16 17 18
f 19 24 23 22 21 20

# Right wheel sides
f 25 31 32 26
f 26 32 33 27
f 27 33 34 28
f 28 34 35 29
f 29 35 36 30
f 30 36 31 25
f 25 26 27 28 29 30
f 31 36 35 34 33 32
