# Low-poly Minigun — rotating barrel cluster + receiver block
o Minigun

# Receiver box
v -0.10 -0.08 -0.10
v  0.10 -0.08 -0.10
v  0.10  0.08 -0.10
v -0.10  0.08 -0.10
v -0.10 -0.08  0.20
v  0.10 -0.08  0.20
v  0.10  0.08  0.20
v -0.10  0.08  0.20

# Barrel 1 (top)
v -0.02  0.14  0.20
v  0.02  0.14  0.20
v  0.02  0.14  0.85
v -0.02  0.14  0.85

# Barrel 2 (upper-right)
v  0.12  0.06  0.20
v  0.16  0.06  0.20
v  0.16  0.06  0.85
v  0.12  0.06  0.85

# Barrel 3 (lower-right)
v  0.12 -0.06  0.20
v  0.16 -0.06  0.20
v  0.16 -0.06  0.85
v  0.12 -0.06  0.85

# Barrel 4 (bottom)
v -0.02 -0.14  0.20
v  0.02 -0.14  0.20
v  0.02 -0.14  0.85
v -0.02 -0.14  0.85

# Grip/handle
v -0.04 -0.14 -0.05
v  0.04 -0.14 -0.05
v  0.04 -0.30 -0.05
v -0.04 -0.30 -0.05
v -0.04 -0.14  0.10
v  0.04 -0.14  0.10
v  0.04 -0.30  0.10
v -0.04 -0.30  0.10

# Receiver
f 1 2 6 5
f 2 3 7 6
f 3 4 8 7
f 4 1 5 8
f 1 4 3 2
f 5 6 7 8

# Barrel 1
f 9 10 11 12
f 9 12 11 10

# Barrel 2
f 13 14 15 16
f 13 16 15 14

# Barrel 3
f 17 18 19 20
f 17 20 19 18

# Barrel 4
f 21 22 23 24
f 21 24 23 22

# Grip
f 25 26 30 29
f 26 27 31 30
f 27 28 32 31
f 28 25 29 32
f 25 28 27 26
f 29 30 31 32
