# Plasma Cannon - bulbous energy chamber at back + wide barrel + glowing rings
# CCW winding
o plasma_cannon

# Energy chamber (bulbous, octagonal sphere approximation)
v  0.00  0.40 -1.20
v  0.40  0.00 -1.20
v  0.00 -0.40 -1.20
v -0.40  0.00 -1.20
v  0.35  0.35 -0.90
v  0.35 -0.35 -0.90
v -0.35 -0.35 -0.90
v -0.35  0.35 -0.90
v  0.35  0.35 -1.50
v  0.35 -0.35 -1.50
v -0.35 -0.35 -1.50
v -0.35  0.35 -1.50
v  0.00  0.00 -1.80

# Wide barrel (hex prism)
v  0.20  0.20  0.00
v  0.00  0.28  0.00
v -0.20  0.20  0.00
v -0.20 -0.20  0.00
v  0.00 -0.28  0.00
v  0.20 -0.20  0.00

v  0.20  0.20 -0.90
v  0.00  0.28 -0.90
v -0.20  0.20 -0.90
v -0.20 -0.20 -0.90
v  0.00 -0.28 -0.90
v  0.20 -0.20 -0.90

# Muzzle (wider opening)
v  0.28  0.28  0.00
v  0.00  0.35  0.00
v -0.28  0.28  0.00
v -0.28 -0.28  0.00
v  0.00 -0.35  0.00
v  0.28 -0.28  0.00

# Muzzle center
v  0.00  0.00  0.00

# Glow ring (around barrel mid-point)
v  0.30  0.30 -0.45
v  0.00  0.38 -0.45
v -0.30  0.30 -0.45
v -0.30 -0.30 -0.45
v  0.00 -0.38 -0.45
v  0.30 -0.30 -0.45

v  0.30  0.30 -0.55
v  0.00  0.38 -0.55
v -0.30  0.30 -0.55
v -0.30 -0.30 -0.55
v  0.00 -0.38 -0.55
v  0.30 -0.30 -0.55

# Chamber faces
f 1 5 8
f 1 8 12
f 1 12 9
f 1 9 5
f 2 6 5
f 2 5 9
f 2 9 10
f 2 10 6
f 3 7 6
f 3 6 10
f 3 10 11
f 3 11 7
f 4 8 7
f 4 7 11
f 4 11 12
f 4 12 8
f 13 10 9 12 11

# Barrel sides
f 20 14 15 21
f 21 15 16 22
f 22 16 17 23
f 23 17 18 24
f 24 18 19 25
f 25 19 14 20

# Barrel rear cap
f 20 25 24 23 22 21

# Muzzle flare
f 14 26 27 15
f 15 27 28 16
f 16 28 29 17
f 17 29 30 18
f 18 30 31 19
f 19 31 26 14

# Muzzle cap
f 32 27 26
f 32 28 27
f 32 29 28
f 32 30 29
f 32 31 30
f 32 26 31

# Glow ring sides
f 33 39 40 34
f 34 40 41 35
f 35 41 42 36
f 36 42 43 37
f 37 43 44 38
f 38 44 39 33
f 33 34 35 36 37 38
f 39 44 43 42 41 40
