# Low-poly RPG Launcher - rocket tube + grip
# 16 faces

o RPGLauncher

# Main tube (octagonal cylinder)
v  0.00  0.00  0.00
v  0.12  0.00  0.00
v  0.12  0.12  0.00
v  0.00  0.12  0.00
v  0.00  0.00  0.80
v  0.12  0.00  0.80
v  0.12  0.12  0.80
v  0.00  0.12  0.80

# Back flare
v -0.06 -0.06  0.00
v  0.18 -0.06  0.00
v  0.18  0.18  0.00
v -0.06  0.18  0.00

# Grip
v  0.04 -0.18  0.30
v  0.08 -0.18  0.30
v  0.08 -0.18  0.50
v  0.04 -0.18  0.50
v  0.04  0.00  0.30
v  0.08  0.00  0.30
v  0.08  0.00  0.50
v  0.04  0.00  0.50

# Tube faces
f 1 2 6 5
f 2 3 7 6
f 3 4 8 7
f 4 1 5 8
f 1 4 3 2
f 5 6 7 8

# Back flare
f 9 10 2 1
f 10 11 3 2
f 11 12 4 3
f 12 9 1 4
f 9 12 11 10

# Grip faces
f 13 14 18 17
f 14 15 19 18
f 15 16 20 19
f 16 13 17 20
f 13 16 15 14
f 17 18 19 20
