# Shotgun - double barrel, thick short barrels, pump grip below
# CCW winding
o shotgun

# Barrel 1 (left tube, quad prism)
v  0.18  0.20  0.00
v  0.06  0.20  0.00
v  0.06 -0.02  0.00
v  0.18 -0.02  0.00

v  0.18  0.20 -0.80
v  0.06  0.20 -0.80
v  0.06 -0.02 -0.80
v  0.18 -0.02 -0.80

# Barrel 2 (right tube, offset)
v -0.06  0.20  0.00
v -0.18  0.20  0.00
v -0.18 -0.02  0.00
v -0.06 -0.02  0.00

v -0.06  0.20 -0.80
v -0.18  0.20 -0.80
v -0.18 -0.02 -0.80
v -0.06 -0.02 -0.80

# Pump grip (below barrels)
v  0.14 -0.05 -0.25
v -0.14 -0.05 -0.25
v  0.14 -0.25 -0.25
v -0.14 -0.25 -0.25
v  0.14 -0.05 -0.55
v -0.14 -0.05 -0.55
v  0.14 -0.25 -0.55
v -0.14 -0.25 -0.55

# Stock (rear box)
v  0.14  0.18 -0.80
v -0.14  0.18 -0.80
v  0.14 -0.08 -0.80
v -0.14 -0.08 -0.80
v  0.10  0.14 -1.20
v -0.10  0.14 -1.20
v  0.10 -0.06 -1.20
v -0.10 -0.06 -1.20

# Barrel 1 sides
f 1 5 6 2
f 2 6 7 3
f 3 7 8 4
f 4 8 5 1
f 5 8 7 6
f 1 2 3 4

# Barrel 2 sides
f 9 13 14 10
f 10 14 15 11
f 11 15 16 12
f 12 16 13 9
f 13 16 15 14
f 9 10 11 12

# Pump grip sides
f 17 21 22 18
f 18 22 24 20
f 20 24 23 19
f 19 23 21 17
f 21 23 24 22
f 17 18 20 19

# Stock sides
f 25 29 30 26
f 26 30 32 28
f 28 32 31 27
f 27 31 29 25
f 29 31 32 30
f 25 26 28 27
