# Sniper Railgun - long thin barrel with scope and bipod
o sniper_railgun

# Main barrel (long box)
v  0.06  0.06  0.00
v -0.06  0.06  0.00
v -0.06 -0.06  0.00
v  0.06 -0.06  0.00
v  0.06  0.06 -1.80
v -0.06  0.06 -1.80
v -0.06 -0.06 -1.80
v  0.06 -0.06 -1.80

# Scope body (box on top)
v  0.05  0.22 -0.40
v -0.05  0.22 -0.40
v -0.05  0.14 -0.40
v  0.05  0.14 -0.40
v  0.05  0.22 -1.10
v -0.05  0.22 -1.10
v -0.05  0.14 -1.10
v  0.05  0.14 -1.10

# Bipod left leg
v  0.18 -0.06 -1.40
v  0.18 -0.40 -1.60
v  0.25 -0.06 -1.40
v  0.25 -0.40 -1.60

# Bipod right leg
v -0.18 -0.06 -1.40
v -0.18 -0.40 -1.60
v -0.25 -0.06 -1.40
v -0.25 -0.40 -1.60

# Barrel faces
f 1 2 6 5
f 2 3 7 6
f 3 4 8 7
f 4 1 5 8
f 1 2 3 4
f 5 8 7 6

# Scope faces
f 9 10 14 13
f 10 11 15 14
f 11 12 16 15
f 12 9 13 16
f 9 10 11 12
f 13 16 15 14

# Bipod left
f 17 18 20 19
f 17 19 20 18

# Bipod right
f 21 22 24 23
f 21 23 24 22
