# Sticky Bomb - spherical bomb with suction cups + blinking antenna
# CCW winding
o sticky_bomb

# Sphere body (low-poly icosphere approximation)
# 6 poles + 2 rings of 6 = 14 vertices
v  0.00  0.40  0.00
v  0.40  0.00  0.00
v  0.00  0.00  0.40
v -0.40  0.00  0.00
v  0.00  0.00 -0.40
v  0.20  0.35  0.00
v  0.00  0.35  0.20
v -0.20  0.35  0.00
v  0.00  0.35 -0.20
v  0.20 -0.35  0.00
v  0.00 -0.35  0.20
v -0.20 -0.35  0.00
v  0.00 -0.35 -0.20
v  0.00 -0.40  0.00

# Suction cup 1 (small pyramid, front)
v  0.00  0.00  0.40
v  0.06  0.06  0.42
v -0.06  0.06  0.42
v -0.06 -0.06  0.42
v  0.06 -0.06  0.42
v  0.00  0.00  0.55

# Suction cup 2 (right side)
v  0.40  0.00  0.00
v  0.42  0.06  0.06
v  0.42 -0.06  0.06
v  0.42 -0.06 -0.06
v  0.42  0.06 -0.06
v  0.55  0.00  0.00

# Suction cup 3 (top)
v  0.00  0.40  0.00
v  0.06  0.42  0.06
v -0.06  0.42  0.06
v -0.06  0.42 -0.06
v  0.06  0.42 -0.06
v  0.00  0.55  0.00

# Antenna (thin box on top)
v  0.03  0.40  0.03
v -0.03  0.40  0.03
v  0.03  0.40 -0.03
v -0.03  0.40 -0.03
v  0.03  0.80  0.03
v -0.03  0.80  0.03
v  0.03  0.80 -0.03
v -0.03  0.80 -0.03

# Antenna tip ball
v  0.00  0.88  0.00

# Sphere upper faces
f 1 6 7
f 1 7 8
f 1 8 9
f 1 9 6
f 6 2 7
f 7 3 8
f 8 4 9
f 9 5 6
f 2 3 7
f 3 4 8
f 4 5 9
f 5 2 6

# Sphere lower faces
f 14 11 10
f 14 12 11
f 14 13 12
f 14 10 13
f 10 2 3
f 11 3 4
f 12 4 5
f 13 5 2
f 2 10 3
f 3 11 4
f 4 12 5
f 5 13 2

# Suction cup 1 (front)
f 16 20 19 18 17
f 20 16 15
f 20 17 16
f 20 18 17
f 20 19 18
f 20 15 19

# Suction cup 2 (right)
f 22 26 25 24 23
f 26 22 21
f 26 23 22
f 26 24 23
f 26 25 24
f 26 21 25

# Suction cup 3 (top)
f 28 32 31 30 29
f 32 28 27
f 32 29 28
f 32 30 29
f 32 31 30
f 32 27 31

# Antenna box sides
f 33 37 38 34
f 34 38 40 36
f 36 40 39 35
f 35 39 37 33
f 37 39 40 38
f 33 34 36 35

# Antenna ball (pyramid approx)
f 41 38 37
f 41 40 38
f 41 39 40
f 41 37 39
