# Tesla Coil - spiral tower with sphere on top and discharge spires
o tesla_coil

# Base platform (octagon prism)
v  0.30  0.00  0.30
v  0.00  0.00  0.42
v -0.30  0.00  0.30
v -0.42  0.00  0.00
v -0.30  0.00 -0.30
v  0.00  0.00 -0.42
v  0.30  0.00 -0.30
v  0.42  0.00  0.00

v  0.30 -0.15  0.30
v  0.00 -0.15  0.42
v -0.30 -0.15  0.30
v -0.42 -0.15  0.00
v -0.30 -0.15 -0.30
v  0.00 -0.15 -0.42
v  0.30 -0.15 -0.30
v  0.42 -0.15  0.00

# Tower column (4 sides)
v  0.08  0.00  0.08
v -0.08  0.00  0.08
v -0.08  0.00 -0.08
v  0.08  0.00 -0.08

v  0.08  1.20  0.08
v -0.08  1.20  0.08
v -0.08  1.20 -0.08
v  0.08  1.20 -0.08

# Sphere top (simple box approximation)
v  0.18  1.20  0.18
v -0.18  1.20  0.18
v -0.18  1.20 -0.18
v  0.18  1.20 -0.18
v  0.00  1.48  0.00
v  0.18  1.40  0.18
v -0.18  1.40  0.18
v -0.18  1.40 -0.18
v  0.18  1.40 -0.18

# Base top face
f 1 2 3 4 5 6 7 8
# Base bottom face
f 16 15 14 13 12 11 10 9
# Base sides
f 1 9 10 2
f 2 10 11 3
f 3 11 12 4
f 4 12 13 5
f 5 13 14 6
f 6 14 15 7
f 7 15 16 8
f 8 16 9 1

# Tower column faces
f 17 21 22 18
f 18 22 23 19
f 19 23 24 20
f 20 24 21 17

# Sphere faces
f 25 26 27 28
f 29 33 32 31 30
f 25 29 30 26
f 26 30 31 27
f 27 31 32 28
f 28 32 33 25
